<?xml version="1.0" encoding="UTF-8" standalone="no"?>
<svg
   xmlns:dc="http://purl.org/dc/elements/1.1/"
   xmlns:cc="http://creativecommons.org/ns#"
   xmlns:rdf="http://www.w3.org/1999/02/22-rdf-syntax-ns#"
   xmlns:svg="http://www.w3.org/2000/svg"
   xmlns="http://www.w3.org/2000/svg"
   version="1.1"
   id="svg2"
   viewBox="0 0 62.848035 29.160155"
   height="8.2296438mm"
   width="17.737112mm">
  <defs
     id="defs4" />
  <metadata
     id="metadata7">
    <rdf:RDF>
      <cc:Work
         rdf:about="">
        <dc:format>image/svg+xml</dc:format>
        <dc:type
           rdf:resource="http://purl.org/dc/dcmitype/StillImage" />
        <dc:title></dc:title>
      </cc:Work>
    </rdf:RDF>
  </metadata>
  <g
     transform="translate(-77.338173,-96.773476)"
     id="layer1">
    <g
       id="text3336"
       style="font-style:normal;font-weight:normal;font-size:40px;line-height:125%;font-family:sans-serif;letter-spacing:0px;word-spacing:0px;fill:#000000;fill-opacity:1;stroke:none;stroke-width:1px;stroke-linecap:butt;stroke-linejoin:miter;stroke-opacity:1" />
    <g
       id="text3340"
       style="font-style:normal;font-variant:normal;font-weight:normal;font-stretch:normal;font-size:40px;line-height:125%;font-family:sans-serif;-inkscape-font-specification:'sans-serif, Normal';text-align:start;letter-spacing:0px;word-spacing:0px;writing-mode:lr-tb;text-anchor:start;fill:#000000;fill-opacity:1;stroke:none;stroke-width:1px;stroke-linecap:butt;stroke-linejoin:miter;stroke-opacity:1">
      <path
         d="m 135.39251,105.86771 0,4.79371 4.7937,0 0,1.38427 -4.7937,0 0,4.7937 -1.36719,0 0,-4.7937 -4.7937,0 0,-1.38427 4.7937,0 0,-4.79371 1.36719,0 z m -12.66309,0 0,4.79371 4.7937,0 0,1.38427 -4.7937,0 0,4.7937 -1.36718,0 0,-4.7937 -4.79371,0 0,-1.38427 4.79371,0 0,-4.79371 1.36718,0 z m -15.09828,20.06592 -3.20312,0 -6.679691,-23.71094 -6.679687,23.71094 -3.203125,0 -7.636719,-27.070311 -2.890625,0 0,-2.089843 10.644531,0 0,2.089843 -3.632812,0 6.074218,21.542971 6.640625,-23.632814 3.164065,0 6.75781,23.886714 6.11328,-21.796871 -3.35937,0 0,-2.089843 8.39843,0 0,2.089843 -2.87109,0 -7.63672,27.070311 z"
         style="font-style:normal;font-variant:normal;font-weight:normal;font-stretch:normal;font-size:17.5px;font-family:'DejaVu Serif';-inkscape-font-specification:'DejaVu Serif';letter-spacing:-2px"
         id="path3352" />
    </g>
  </g>
</svg>
